Coordinates
version=1
nRows=28
nColumns=33
inDegrees=yes

Units are S.I. units (second, meters, Newtons, ...)
Angles are in degrees.

endheader
time	ground_thorax_rot_x	ground_thorax_rot_y	ground_thorax_rot_z	ground_thorax_tx	ground_thorax_ty	ground_thorax_tz	clav_prot_r	clav_elev_r	scapula_abduction_r	scapula_elevation_r	scapula_upward_rot_r	scapula_winging_r	shoulder_elv_r	plane_of_elev_r	axial_rot_r	elbow_flexion_r	pro_sup_r	wrist_flex_r	wrist_dev_r	clav_prot_l	clav_elev_l	scapula_abduction_l	scapula_elevation_l	scapula_upward_rot_l	scapula_winging_l	shoulder_elv_l	plane_of_elev_l	axial_rot_l	elbow_flexion_l	pro_sup_l	wrist_flex_l	wrist_dev_l	
7.3000	-40.677972	-4.235085	3.816357	-174.759179	899.516665	-2.605255	9.594836	-45.000000	40.272492	-45.000000	-29.620815	1700.121045	-1186.545851	148.025110	-99.401356	-701.379291	73.940392	18.857513	3.698509	15.585534	39.106539	-41.097967	-45.000000	-42.959044	-992.605816	-2806.049775	21.765392	-39.003820	372.848751	44.103099	5.893418	-22.859953	
7.3100	-40.699589	-4.047045	3.625132	-171.886733	900.256106	-2.370396	9.496949	-45.000000	40.595511	-45.000000	-28.399544	1700.184508	-1186.454652	147.995028	-99.662767	-701.293165	74.911100	18.848891	3.633029	15.575270	39.258855	-41.302486	-45.000000	-42.318753	-992.537396	-2806.054316	21.857049	-38.511796	372.798692	43.541227	5.934877	-22.848587	
7.3200	-40.739023	-3.869783	3.440079	-168.937808	900.786580	-2.113766	9.387005	-45.000000	40.912170	-45.000000	-27.172959	1700.259845	-1186.379237	147.973906	-99.928890	-701.212933	75.816349	18.847236	3.575001	15.576653	39.420256	-41.505758	-45.000000	-41.653508	-992.483900	-2806.082386	21.940135	-38.013561	372.722578	42.785526	6.010198	-22.837256	
7.3300	-40.797181	-3.702833	3.259847	-165.910372	901.084927	-1.834565	9.270496	-45.000000	41.225678	-45.000000	-25.945969	1700.342401	-1186.326610	147.958878	-100.202170	-701.136947	76.663404	18.850053	3.522954	15.580968	39.588901	-41.712988	-45.000000	-40.982891	-992.442193	-2806.136543	22.024426	-37.511834	372.618147	41.825022	6.128164	-22.828753	
7.3400	-40.873538	-3.537723	3.079572	-162.801636	901.131299	-1.531756	9.138963	-45.000000	41.527204	-45.000000	-24.696630	1700.432880	-1186.297091	147.954569	-100.470446	-701.061442	77.468219	18.861841	3.477620	15.606085	39.772032	-41.925515	-45.000000	-40.300917	-992.423717	-2806.212855	22.100625	-37.014693	372.487247	40.637299	6.290874	-22.823302	
7.3500	-40.968204	-3.380944	2.902188	-159.608664	900.910023	-1.204244	9.001707	-45.000000	41.820849	-45.000000	-23.455465	1700.531140	-1186.295804	147.954074	-100.744442	-700.986821	78.233940	18.876020	3.436402	15.631119	39.960361	-42.140023	-45.000000	-39.612584	-992.426848	-2806.312927	22.171434	-36.525362	372.328176	39.210472	6.506996	-22.821571	
7.3600	-41.079888	-3.233966	2.729712	-156.328889	900.410122	-0.850998	8.853701	-45.000000	42.105078	-45.000000	-22.220919	1700.641691	-1186.321064	147.962644	-101.023556	-700.912658	78.968228	18.895483	3.400737	15.668350	40.158696	-42.354468	-45.000000	-38.914513	-992.451851	-2806.440127	22.233004	-36.051857	372.144788	37.538003	6.774731	-22.818496	
7.3700	-41.208376	-3.108258	2.566996	-152.961139	899.625795	-0.471228	8.706711	-45.000000	42.387308	-45.000000	-21.026331	1700.764322	-1186.378398	147.974207	-101.323900	-700.841924	79.662262	18.912976	3.368870	15.692867	40.359190	-42.560909	-45.000000	-38.208578	-992.487440	-2806.601092	22.294044	-35.603487	371.937343	35.632558	7.098632	-22.810729	
7.3800	-41.349850	-2.994359	2.407741	-149.506222	898.556376	-0.064515	8.560117	-45.000000	42.662898	-45.000000	-19.866217	1700.897731	-1186.467226	147.986102	-101.644776	-700.777521	80.309290	18.931244	3.343245	15.713619	40.563026	-42.760185	-44.999999	-37.497866	-992.543778	-2806.790287	22.351296	-35.184260	371.710098	33.500611	7.479104	-22.794517	
7.3900	-41.502169	-2.897141	2.254830	-145.967578	897.206297	0.368987	8.418705	-45.000000	42.938687	-45.000000	-18.757667	1701.041023	-1186.590921	147.998397	-101.982456	-700.720773	80.899195	18.944973	3.323010	15.719571	40.764887	-42.954887	-44.999999	-36.793147	-992.613089	-2807.011589	22.410157	-34.792902	371.468309	31.173879	7.913349	-22.763650	
7.4000	-41.660542	-2.797289	2.097425	-142.350823	895.584426	0.828418	8.270633	-45.000000	43.210769	-45.000000	-17.656487	1701.190740	-1186.747100	148.021076	-102.318738	-700.669452	81.433673	18.971049	3.314876	15.758604	40.972460	-43.155934	-44.999997	-36.103893	-992.717072	-2807.250447	22.457250	-34.416132	371.215006	28.650154	8.392700	-22.708889	
7.4100	-41.823334	-2.704322	1.941274	-138.663698	893.703642	1.311986	8.122610	-45.000000	43.481238	-45.000000	-16.581014	1701.345316	-1186.936455	148.053197	-102.652822	-700.623303	81.906396	19.002227	3.316666	15.809536	41.181795	-43.360332	-44.999995	-35.434687	-992.843766	-2807.512346	22.500605	-34.058325	370.952807	25.978865	8.909417	-22.623957	
7.4200	-41.985401	-2.604610	1.779072	-134.915055	891.579576	1.816878	7.968405	-45.000000	43.744757	-45.000000	-15.505060	1701.503040	-1187.154827	148.099639	-102.978180	-700.583215	82.317476	19.053975	3.335272	15.910608	41.396265	-43.575303	-44.999992	-34.797257	-993.010690	-2807.782675	22.531256	-33.708671	370.684091	23.188479	9.447357	-22.500179	
7.4300	-42.144903	-2.507903	1.613504	-131.114401	889.229778	2.339195	7.817076	-45.000000	44.006176	-45.000000	-14.466748	1701.666183	-1187.404638	148.151755	-103.300931	-700.552426	82.652831	19.109303	3.366030	16.019218	41.607532	-43.789613	-44.999985	-34.188173	-993.201080	-2808.067628	22.563313	-33.369901	370.418630	20.368050	10.000682	-22.338072	
7.4400	-42.297738	-2.409262	1.443445	-127.271003	886.672238	2.874113	7.665828	-45.000000	44.258951	-45.000000	-13.460715	1701.837327	-1187.681651	148.210718	-103.623023	-700.532968	82.902260	19.178589	3.413883	16.156286	41.815568	-44.004875	-44.999973	-33.618930	-993.424854	-2808.356009	22.592641	-33.025829	370.161177	17.588831	10.549802	-22.136880	
7.4500	-42.442292	-2.323511	1.280241	-123.393890	883.924720	3.416155	7.521557	-45.000000	44.491051	-45.000000	-12.541975	1702.028127	-1187.982361	148.267635	-103.952826	-700.529161	83.045124	19.244138	3.473638	16.270167	42.014250	-44.209954	-44.999952	-33.085995	-993.662130	-2808.658512	22.636153	-32.681826	369.919115	14.980505	11.081652	-21.905783	
7.4600	-42.575951	-2.251924	1.133752	-119.491615	881.003805	3.959653	7.381088	-45.000000	44.684280	-45.000000	-11.732871	1702.249419	-1188.300058	148.323466	-104.305760	-700.541709	83.070753	19.316213	3.549149	16.373548	42.204534	-44.409729	-44.999914	-32.602767	-993.914643	-2808.970589	22.693274	-32.333364	369.695135	12.638955	11.570247	-21.653959	
7.4700	-42.698186	-2.205075	1.012256	-115.572622	877.924836	4.499247	7.245865	-45.000000	44.830548	-45.000000	-11.074408	1702.512321	-1188.633866	148.372961	-104.687323	-700.574237	82.963117	19.381846	3.637011	16.432280	42.380960	-44.588462	-44.999847	-32.161732	-994.175377	-2809.294583	22.773737	-31.976571	369.492735	10.659921	12.008065	-21.395677	
7.4800	-42.806696	-2.197565	0.936210	-111.645454	874.701836	5.030351	7.133700	-45.000000	44.926161	-45.000000	-10.593213	1702.809726	-1188.980910	148.410213	-105.113406	-700.625713	82.721048	19.439679	3.735521	16.435140	42.538034	-44.742756	-44.999725	-31.783608	-994.442523	-2809.629011	22.881535	-31.616994	369.308685	9.082340	12.383750	-21.139708	
7.4900	-42.899853	-2.219011	0.891836	-107.719512	871.348073	5.549393	7.021989	-45.000000	44.977137	-45.000000	-10.237663	1703.140806	-1189.341106	148.446832	-105.559030	-700.700358	82.331824	19.494939	3.849828	16.413293	42.681922	-44.858161	-44.999508	-31.450106	-994.739756	-2809.958758	23.007937	-31.210215	369.138496	7.909525	12.703704	-20.893519	
7.5000	-42.978279	-2.278317	0.891091	-103.805161	867.876477	6.053841	6.939102	-45.000000	44.996459	-45.000000	-10.034364	1703.485367	-1189.721168	148.466717	-106.031645	-700.800089	81.798342	19.533205	3.974291	16.335973	42.802806	-44.937000	-44.999119	-31.186953	-995.059692	-2810.279812	23.160064	-30.778531	368.981627	7.113993	12.980095	-20.660649	
7.5100	-43.037851	-2.329564	0.884727	-99.914250	864.300123	6.541873	6.825638	-45.000000	45.000000	-45.000000	-9.827396	1703.843661	-1190.115767	148.505561	-106.476288	-700.922754	81.098694	19.590925	4.127110	16.320364	42.920695	-44.980218	-44.998422	-30.954116	-995.442421	-2810.573995	23.313033	-30.235830	368.831604	6.610307	13.219659	-20.440835	
7.5200	-43.079095	-2.403535	0.900163	-96.059624	860.632797	7.011981	6.732823	-45.000000	45.000000	-45.000000	-9.697665	1704.209401	-1190.515614	148.543494	-106.923935	-701.063324	80.238865	19.657301	4.301359	16.307867	43.019228	-44.997625	-44.997172	-30.787017	-995.842270	-2810.868888	23.489016	-29.648404	368.682404	6.348531	13.420989	-20.234695	
7.5300	-43.100320	-2.461921	0.898985	-92.255100	856.889111	7.462476	6.601502	-45.000000	45.000000	-45.000000	-9.524986	1704.598732	-1190.909706	148.621699	-107.350421	-701.222515	79.200194	19.772191	4.518015	16.411271	43.123726	-45.000000	-44.994937	-30.642336	-996.290626	-2811.152360	23.655849	-28.954931	368.524187	6.255458	13.583288	-20.039572	
7.5400	-43.104966	-2.540065	0.921828	-88.514227	853.084710	7.891293	6.497353	-45.000000	45.000000	-45.000000	-9.443637	1705.000715	-1191.298941	148.703534	-107.797033	-701.404447	77.988284	19.897375	4.762145	16.521078	43.213020	-45.000000	-44.990922	-30.561416	-996.740549	-2811.443107	23.835152	-28.251161	368.357192	6.309583	13.718415	-19.855326	
7.5500	-43.091116	-2.592101	0.922514	-84.849945	849.235951	8.295920	6.352633	-45.000000	45.000000	-45.000000	-9.314837	1705.412837	-1191.687776	148.820722	-108.226684	-701.616049	76.558643	20.047052	5.048806	16.725765	43.314832	-45.000000	-44.983765	-30.477404	-997.232819	-2811.719171	23.988719	-27.466871	368.180210	6.470786	13.841324	-19.680568	
7.5600	-43.061108	-2.656382	0.938278	-81.273488	845.359785	8.673743	6.234638	-45.000000	45.000000	-45.000000	-9.262930	1705.816619	-1192.082510	148.930133	-108.659422	-701.863198	74.895920	20.174130	5.360723	16.904766	43.404051	-45.000000	-44.970843	-30.428427	-997.725805	-2811.990628	24.139464	-26.693911	367.999402	6.739465	13.966062	-19.517069	
7.5700	-43.013889	-2.697258	0.929589	-77.794621	841.473091	9.022410	6.091495	-45.000000	45.000000	-45.000000	-9.176324	1706.204758	-1192.491950	149.049644	-109.053915	-702.153492	72.950267	20.283872	5.707789	17.114430	43.498402	-45.000000	-44.947984	-30.365037	-998.251144	-2812.232305	24.258582	-25.882480	367.815879	7.091785	14.106598	-19.364243	
